<?xml version="1.0" encoding="utf-8"?>
<!-- Generator: Adobe Illustrator 24.1.1, SVG Export Plug-In . SVG Version: 6.00 Build 0)  -->
<svg version="1.1" id="Camada_1" xmlns="http://www.w3.org/2000/svg" xmlns:xlink="http://www.w3.org/1999/xlink" x="0px" y="0px"
	 viewBox="0 0 15 15" style="enable-background:new 0 0 15 15;" xml:space="preserve">
<style type="text/css">
	.st0{fill:#0F405B;}
</style>
<path class="st0" d="M4.91,6.66c-0.23,0-0.43-0.03-0.62-0.09S3.95,6.42,3.83,6.3C3.7,6.19,3.6,6.05,3.54,5.89
	c-0.07-0.16-0.1-0.34-0.1-0.54V3.62c0.04-0.01,0.11-0.02,0.19-0.03c0.08-0.01,0.17-0.02,0.25-0.02c0.18,0,0.31,0.03,0.39,0.09
	c0.08,0.06,0.12,0.18,0.12,0.36v1.31c0,0.17,0.05,0.31,0.14,0.41c0.1,0.1,0.22,0.15,0.37,0.15c0.15,0,0.28-0.05,0.37-0.15
	c0.1-0.1,0.14-0.23,0.14-0.41V3.25c0.04-0.01,0.11-0.02,0.19-0.03C5.7,3.21,5.78,3.2,5.86,3.2c0.18,0,0.31,0.03,0.39,0.09
	c0.08,0.06,0.12,0.18,0.12,0.36v1.7c0,0.2-0.03,0.38-0.1,0.54C6.21,6.05,6.11,6.19,5.98,6.3C5.86,6.42,5.7,6.51,5.52,6.57
	C5.34,6.63,5.13,6.66,4.91,6.66z"/>
<path class="st0" d="M8.02,5.66v0.79c0,0.06-0.04,0.11-0.11,0.12c-0.02,0-0.05,0.01-0.08,0.01C7.75,6.6,7.67,6.6,7.58,6.6
	c-0.19,0-0.33-0.03-0.4-0.1C7.11,6.44,7.07,6.32,7.07,6.15V3.57c0-0.08,0.02-0.14,0.06-0.18c0.04-0.04,0.1-0.08,0.17-0.1
	c0.12-0.04,0.27-0.08,0.44-0.1C7.91,3.18,8.06,3.17,8.2,3.17c0.5,0,0.88,0.11,1.15,0.32c0.27,0.21,0.4,0.5,0.4,0.87
	c0,0.18-0.03,0.34-0.1,0.48C9.58,4.99,9.49,5.11,9.36,5.21C9.24,5.32,9.09,5.4,8.92,5.45C8.75,5.51,8.55,5.54,8.34,5.54H8.15
	C8.08,5.54,8.02,5.59,8.02,5.66z M8.28,4.79c0.15,0,0.27-0.04,0.36-0.11C8.73,4.6,8.78,4.5,8.78,4.36c0-0.14-0.04-0.24-0.13-0.32
	C8.57,3.97,8.44,3.93,8.28,3.93c-0.06,0-0.11,0-0.14,0c0,0,0,0,0,0c-0.07,0-0.12,0.06-0.12,0.12v0.61c0,0.07,0.06,0.12,0.12,0.12
	H8.28z"/>
<path class="st0" d="M5.58,8.36c0,0.29-0.04,0.54-0.13,0.76c-0.09,0.22-0.21,0.4-0.37,0.54C4.91,9.82,4.72,9.93,4.49,10
	c-0.23,0.07-0.47,0.11-0.75,0.11c-0.06,0-0.13,0-0.21-0.01c-0.08,0-0.16-0.01-0.25-0.02c-0.09-0.01-0.17-0.02-0.26-0.04
	C2.94,10.02,2.87,10,2.79,9.97c-0.2-0.08-0.3-0.21-0.3-0.4V7.03c0-0.08,0.02-0.14,0.06-0.18c0.04-0.04,0.1-0.08,0.17-0.1
	c0.16-0.05,0.32-0.08,0.5-0.1s0.33-0.02,0.47-0.02c0.28,0,0.54,0.03,0.77,0.1C4.69,6.8,4.89,6.91,5.06,7.05
	c0.17,0.14,0.29,0.32,0.38,0.54C5.53,7.81,5.58,8.07,5.58,8.36z M4.6,8.38c0-0.33-0.08-0.57-0.23-0.74
	C4.21,7.48,4.01,7.39,3.76,7.39c-0.05,0-0.1,0-0.16,0.01c-0.05,0-0.11,0.01-0.16,0.02v1.9c0.04,0.01,0.09,0.01,0.15,0.02
	C3.65,9.34,3.7,9.34,3.75,9.34C4,9.34,4.21,9.26,4.36,9.1C4.52,8.94,4.6,8.7,4.6,8.38z"/>
<path class="st0" d="M7.57,10.12c-0.23,0-0.43-0.03-0.62-0.09C6.77,9.96,6.62,9.88,6.49,9.76C6.36,9.65,6.27,9.51,6.2,9.35
	C6.13,9.19,6.1,9.01,6.1,8.81v-2.1C6.14,6.7,6.21,6.69,6.29,6.68c0.08-0.01,0.17-0.02,0.25-0.02c0.18,0,0.31,0.03,0.39,0.09
	c0.08,0.06,0.12,0.18,0.12,0.36v1.68c0,0.17,0.05,0.31,0.14,0.41c0.1,0.1,0.22,0.15,0.37,0.15c0.15,0,0.28-0.05,0.37-0.15
	c0.1-0.1,0.14-0.23,0.14-0.41V6.71C8.13,6.7,8.2,6.69,8.28,6.68c0.08-0.01,0.17-0.02,0.25-0.02c0.18,0,0.31,0.03,0.39,0.09
	C9,6.81,9.04,6.93,9.04,7.11v1.7c0,0.2-0.03,0.38-0.1,0.54c-0.07,0.16-0.16,0.3-0.29,0.41c-0.13,0.11-0.28,0.2-0.46,0.26
	C8,10.09,7.8,10.12,7.57,10.12z"/>
<path class="st0" d="M13.02,8.36c0,0.28-0.04,0.53-0.13,0.75c-0.09,0.22-0.21,0.4-0.36,0.55c-0.15,0.15-0.34,0.26-0.55,0.33
	c-0.21,0.08-0.44,0.11-0.69,0.11c-0.25,0-0.48-0.04-0.69-0.11c-0.21-0.08-0.39-0.19-0.54-0.34C9.91,9.52,9.79,9.33,9.71,9.12
	C9.62,8.9,9.57,8.65,9.57,8.36s0.04-0.53,0.13-0.75c0.09-0.22,0.21-0.4,0.36-0.55c0.15-0.15,0.34-0.26,0.54-0.34
	c0.21-0.08,0.43-0.11,0.68-0.11c0.24,0,0.47,0.04,0.68,0.11c0.21,0.08,0.39,0.19,0.55,0.34c0.16,0.15,0.28,0.33,0.37,0.55
	C12.98,7.83,13.02,8.08,13.02,8.36z M12.04,8.36c0-0.33-0.07-0.57-0.2-0.74c-0.13-0.16-0.32-0.25-0.54-0.25
	c-0.22,0-0.4,0.08-0.54,0.24c-0.14,0.16-0.2,0.41-0.2,0.74c0,0.33,0.07,0.58,0.2,0.74c0.13,0.16,0.32,0.25,0.54,0.25
	c0.23,0,0.4-0.08,0.54-0.25C11.98,8.94,12.04,8.69,12.04,8.36z"/>
<g>
	<path class="st0" d="M2.84,11.19c0,0-0.01,0.01-0.01,0.01c-0.01,0-0.01,0-0.02,0c-0.01,0-0.02,0-0.02,0
		c-0.01,0-0.01-0.01-0.01-0.01c-0.03-0.06-0.05-0.12-0.08-0.17c-0.02-0.05-0.04-0.09-0.05-0.12h0c0,0.04,0,0.08-0.01,0.11
		c0,0.03,0,0.07-0.01,0.1c0,0.03,0,0.07-0.01,0.1c0,0.03,0,0.07-0.01,0.11c0,0-0.01,0-0.01,0c-0.01,0-0.01,0-0.02,0
		c-0.01,0-0.02,0-0.03-0.01c0,0-0.01-0.01-0.01-0.02c0-0.01,0-0.02,0-0.03c0-0.02,0-0.04,0-0.06c0-0.03,0-0.05,0.01-0.08
		c0-0.03,0-0.06,0.01-0.09c0-0.03,0-0.06,0.01-0.09c0-0.03,0-0.06,0.01-0.08c0,0,0.01-0.01,0.02-0.01c0.01,0,0.02,0,0.03,0
		c0.02,0,0.04,0.01,0.05,0.03c0.01,0.02,0.02,0.04,0.03,0.07c0.01,0.02,0.02,0.05,0.03,0.07c0.01,0.02,0.02,0.05,0.03,0.07
		c0.01,0.02,0.02,0.05,0.03,0.07h0c0.01-0.03,0.02-0.06,0.04-0.08c0.01-0.03,0.02-0.05,0.03-0.08c0.01-0.03,0.02-0.05,0.03-0.07
		c0.01-0.02,0.02-0.04,0.03-0.06c0,0,0.01,0,0.02-0.01c0.01,0,0.01,0,0.02,0c0.03,0,0.04,0.01,0.04,0.03c0,0.01,0,0.03,0.01,0.05
		c0,0.02,0.01,0.05,0.01,0.08c0,0.03,0.01,0.06,0.01,0.09c0,0.03,0,0.07,0.01,0.1c0,0.03,0,0.06,0.01,0.09c0,0.03,0,0.05,0,0.06
		c-0.01,0.01-0.02,0.01-0.03,0.01c-0.01,0-0.02,0-0.02-0.01c-0.01,0-0.01-0.01-0.01-0.02c0-0.04-0.01-0.08-0.01-0.12
		c0-0.04,0-0.08-0.01-0.11c0-0.03,0-0.07-0.01-0.1s0-0.05,0-0.07h0c-0.01,0.02-0.01,0.03-0.02,0.05c-0.01,0.02-0.02,0.04-0.03,0.06
		c-0.01,0.02-0.02,0.05-0.04,0.08C2.87,11.12,2.86,11.15,2.84,11.19z"/>
	<path class="st0" d="M3.63,11.18H3.41c0,0.01-0.01,0.02-0.01,0.04c0,0.01-0.01,0.03-0.01,0.04c0,0.01-0.01,0.02-0.01,0.03
		c0,0.01-0.01,0.02-0.01,0.03c-0.01,0-0.02,0-0.03,0c-0.01,0-0.02,0-0.02-0.01c-0.01,0-0.01-0.01-0.01-0.02c0,0,0-0.01,0-0.01
		c0-0.01,0-0.01,0.01-0.02c0.01-0.02,0.02-0.05,0.03-0.09c0.01-0.04,0.03-0.07,0.04-0.11c0.01-0.04,0.03-0.08,0.05-0.12
		c0.02-0.04,0.03-0.08,0.04-0.11c0,0,0.01,0,0.02-0.01c0.01,0,0.02,0,0.03,0c0.01,0,0.02,0,0.03,0c0.01,0,0.02,0.01,0.02,0.02
		c0.01,0.03,0.03,0.07,0.04,0.11c0.01,0.04,0.03,0.08,0.04,0.12c0.02,0.04,0.03,0.08,0.04,0.12c0.01,0.04,0.03,0.08,0.04,0.11
		c0,0-0.01,0.01-0.02,0.01c-0.01,0-0.01,0-0.02,0c-0.01,0-0.02,0-0.02-0.01c-0.01,0-0.01-0.01-0.01-0.02L3.63,11.18z M3.52,10.88
		c-0.01,0.02-0.01,0.03-0.02,0.06C3.49,10.95,3.49,10.97,3.48,11c-0.01,0.02-0.02,0.05-0.02,0.07c-0.01,0.02-0.02,0.05-0.02,0.07
		h0.18c-0.01-0.02-0.02-0.05-0.03-0.07c-0.01-0.02-0.02-0.05-0.02-0.07c-0.01-0.02-0.02-0.04-0.02-0.06
		C3.53,10.9,3.53,10.89,3.52,10.88L3.52,10.88z"/>
	<path class="st0" d="M4.06,11.31c0,0-0.01,0-0.01,0c-0.01,0-0.01,0-0.02,0c-0.02,0-0.04-0.01-0.04-0.03v-0.43
		c0-0.01,0-0.02,0.01-0.02c0,0,0.01-0.01,0.02-0.01c0.02,0,0.03-0.01,0.06-0.01c0.02,0,0.05,0,0.07,0c0.07,0,0.12,0.01,0.15,0.04
		c0.03,0.03,0.05,0.07,0.05,0.12c0,0.04-0.01,0.07-0.03,0.09c-0.02,0.03-0.05,0.04-0.09,0.05c0.01,0.02,0.03,0.03,0.04,0.05
		c0.01,0.02,0.03,0.03,0.04,0.05c0.01,0.02,0.02,0.03,0.03,0.04c0.01,0.01,0.02,0.02,0.02,0.03c0,0.01-0.01,0.02-0.01,0.02
		c-0.01,0.01-0.01,0.01-0.02,0.01c-0.01,0-0.02,0-0.02-0.01s-0.01-0.01-0.02-0.02l-0.12-0.16H4.06V11.31z M4.15,11.07
		c0.04,0,0.07-0.01,0.09-0.03c0.02-0.02,0.03-0.04,0.03-0.08c0-0.03-0.01-0.06-0.04-0.08c-0.02-0.02-0.06-0.03-0.1-0.03
		c-0.01,0-0.03,0-0.04,0c-0.01,0-0.03,0-0.04,0.01v0.2H4.15z"/>
	<path class="st0" d="M4.7,11.08v0.23c0,0-0.01,0-0.01,0c-0.01,0-0.01,0-0.02,0c-0.02,0-0.04-0.01-0.04-0.03v-0.46
		c0,0,0.01,0,0.01,0c0.01,0,0.01,0,0.02,0c0.02,0,0.04,0.01,0.04,0.03v0.2l0.22-0.23c0.01,0,0.02,0,0.03,0.01
		c0.01,0.01,0.01,0.01,0.01,0.02c0,0.01,0,0.01-0.01,0.02c0,0.01-0.01,0.01-0.02,0.02l-0.17,0.17c0.05,0.05,0.09,0.09,0.13,0.13
		c0.04,0.04,0.07,0.07,0.09,0.09c0,0.01,0,0.02-0.01,0.03c-0.01,0.01-0.01,0.01-0.02,0.01c-0.01,0-0.02,0-0.02-0.01
		c-0.01-0.01-0.01-0.01-0.02-0.02L4.7,11.08z"/>
	<path class="st0" d="M5.26,11.31c-0.01-0.01-0.01-0.02-0.01-0.03v-0.42c0-0.01,0-0.02,0.01-0.03c0.01-0.01,0.02-0.01,0.03-0.01
		h0.27c0,0,0,0.01,0,0.01c0,0,0,0.01,0,0.01c0,0.01,0,0.02-0.01,0.02c0,0.01-0.01,0.01-0.02,0.01H5.31v0.16h0.21c0,0,0,0.01,0,0.01
		c0,0,0,0.01,0,0.01c0,0.01,0,0.02-0.01,0.02c0,0.01-0.01,0.01-0.02,0.01h-0.2v0.17h0.24c0,0,0,0.01,0,0.01c0,0,0,0.01,0,0.02
		c0,0.01,0,0.02-0.01,0.02c0,0.01-0.01,0.01-0.02,0.01H5.29C5.27,11.32,5.27,11.31,5.26,11.31z"/>
	<path class="st0" d="M6.01,10.88v0.43c0,0-0.01,0-0.01,0c-0.01,0-0.01,0-0.02,0c-0.02,0-0.04-0.01-0.04-0.03v-0.41H5.8
		c0,0,0-0.01,0-0.01c0,0,0-0.01,0-0.02c0-0.01,0-0.02,0.01-0.02c0-0.01,0.01-0.01,0.02-0.01h0.35c0,0,0,0.01,0,0.01
		c0,0,0,0.01,0,0.01c0,0.01,0,0.02-0.01,0.02c0,0.01-0.01,0.01-0.02,0.01H6.01z"/>
	<path class="st0" d="M6.48,11.32c-0.01,0-0.01,0-0.02,0c-0.02,0-0.04-0.01-0.04-0.03v-0.46c0,0,0.01,0,0.01,0c0.01,0,0.01,0,0.02,0
		c0.02,0,0.03,0.01,0.03,0.03v0.46C6.49,11.31,6.48,11.32,6.48,11.32z"/>
	<path class="st0" d="M6.83,11.32c-0.02,0-0.04-0.01-0.04-0.03v-0.46c0.01-0.01,0.02-0.01,0.04-0.01c0.01,0,0.02,0,0.03,0.01
		c0.01,0.01,0.02,0.01,0.03,0.03l0.15,0.26c0.01,0.01,0.01,0.02,0.02,0.04c0.01,0.01,0.01,0.03,0.02,0.04s0.01,0.02,0.02,0.04
		c0.01,0.01,0.01,0.02,0.01,0.03l0,0c0-0.04-0.01-0.09-0.01-0.13c0-0.04,0-0.09,0-0.13v-0.16c0,0,0.01,0,0.01,0
		c0.01,0,0.01,0,0.02,0c0.02,0,0.04,0.01,0.04,0.03v0.46c0,0-0.01,0.01-0.02,0.01c-0.01,0-0.02,0-0.03,0c-0.01,0-0.02,0-0.03-0.01
		c-0.01-0.01-0.02-0.01-0.03-0.03l-0.15-0.26C6.92,11.02,6.92,11,6.91,10.99c-0.01-0.01-0.01-0.03-0.02-0.04
		c-0.01-0.01-0.01-0.02-0.02-0.04s-0.01-0.02-0.01-0.03l0,0c0,0.03,0,0.06,0.01,0.09c0,0.03,0,0.06,0,0.09v0.24c0,0-0.01,0-0.01,0
		C6.84,11.32,6.84,11.32,6.83,11.32z"/>
	<path class="st0" d="M7.88,11.26c0,0.01,0,0.02-0.01,0.02c-0.01,0.01-0.01,0.01-0.03,0.02c-0.01,0.01-0.03,0.01-0.06,0.02
		c-0.02,0-0.05,0.01-0.07,0.01c-0.04,0-0.07-0.01-0.1-0.02c-0.03-0.01-0.06-0.03-0.08-0.05c-0.02-0.02-0.04-0.05-0.05-0.08
		c-0.01-0.03-0.02-0.07-0.02-0.11c0-0.04,0.01-0.08,0.02-0.11s0.03-0.06,0.05-0.08c0.02-0.02,0.05-0.04,0.08-0.05
		c0.03-0.01,0.06-0.02,0.09-0.02c0.02,0,0.04,0,0.06,0.01c0.02,0,0.04,0.01,0.05,0.01c0.01,0.01,0.02,0.01,0.03,0.02
		c0.01,0.01,0.01,0.02,0.01,0.02c0,0.01,0,0.01-0.01,0.02c0,0.01-0.01,0.01-0.02,0.01c-0.01-0.01-0.03-0.02-0.05-0.03
		c-0.02-0.01-0.05-0.01-0.08-0.01c-0.03,0-0.05,0-0.07,0.01c-0.02,0.01-0.04,0.02-0.06,0.04c-0.02,0.02-0.03,0.04-0.04,0.06
		c-0.01,0.03-0.01,0.05-0.01,0.09c0,0.03,0,0.06,0.01,0.09c0.01,0.03,0.02,0.05,0.04,0.06c0.02,0.02,0.04,0.03,0.06,0.04
		c0.02,0.01,0.05,0.01,0.07,0.01c0.02,0,0.04,0,0.05,0c0.02,0,0.03-0.01,0.04-0.01V11.1H7.69c0,0,0-0.01,0-0.01c0,0,0-0.01,0-0.01
		c0-0.01,0-0.02,0.01-0.02c0-0.01,0.01-0.01,0.02-0.01h0.13c0.01,0,0.02,0,0.02,0.01c0.01,0.01,0.01,0.01,0.01,0.02V11.26z"/>
	<path class="st0" d="M8.87,11.33c-0.01,0-0.01,0-0.02,0c0,0-0.01-0.01-0.02-0.01L8.8,11.27c-0.02,0.02-0.04,0.03-0.07,0.05
		c-0.03,0.01-0.06,0.02-0.09,0.02c-0.03,0-0.05,0-0.08-0.01c-0.02-0.01-0.04-0.02-0.06-0.03c-0.02-0.01-0.03-0.03-0.04-0.05
		c-0.01-0.02-0.01-0.04-0.01-0.07c0-0.04,0.01-0.07,0.03-0.09c0.02-0.03,0.05-0.04,0.08-0.05C8.55,11,8.54,10.99,8.54,10.97
		c-0.01-0.01-0.01-0.03-0.01-0.05c0-0.03,0.01-0.06,0.03-0.08c0.02-0.02,0.05-0.03,0.09-0.03c0.03,0,0.05,0,0.06,0.01
		c0.01,0.01,0.02,0.02,0.02,0.03c0,0.01,0,0.01-0.01,0.02c0,0.01-0.01,0.01-0.01,0.01c-0.01,0-0.02-0.01-0.03-0.01
		c-0.01,0-0.02,0-0.04,0c-0.02,0-0.04,0.01-0.05,0.01c-0.01,0.01-0.02,0.02-0.02,0.04c0,0.02,0,0.03,0.01,0.04
		c0.01,0.01,0.02,0.03,0.04,0.04l0.15,0.16c0.01-0.02,0.01-0.04,0.02-0.06c0-0.02,0.01-0.05,0.01-0.08c0,0,0.01,0,0.01-0.01
		c0.01,0,0.01,0,0.01,0c0.02,0,0.03,0.01,0.03,0.04c0,0.03,0,0.06-0.01,0.08c-0.01,0.03-0.02,0.05-0.03,0.08l0.07,0.07
		C8.91,11.31,8.89,11.33,8.87,11.33z M8.64,11.27c0.02,0,0.04,0,0.06-0.01c0.02-0.01,0.04-0.02,0.06-0.04L8.6,11.06
		c-0.01,0-0.02,0.01-0.03,0.01c-0.01,0.01-0.02,0.01-0.03,0.02c-0.01,0.01-0.01,0.02-0.02,0.03c0,0.01-0.01,0.03-0.01,0.04
		c0,0.03,0.01,0.06,0.03,0.08C8.58,11.26,8.61,11.27,8.64,11.27z"/>
	<path class="st0" d="M9.9,11.06c0,0.04-0.01,0.08-0.02,0.12c-0.01,0.03-0.03,0.06-0.05,0.08c-0.02,0.02-0.05,0.04-0.08,0.05
		c-0.03,0.01-0.07,0.02-0.11,0.02c-0.02,0-0.04,0-0.06,0c-0.02,0-0.04,0-0.06-0.01c-0.02-0.01-0.03-0.02-0.03-0.04v-0.41
		c0-0.01,0-0.02,0.01-0.02c0,0,0.01-0.01,0.02-0.01c0.02-0.01,0.04-0.01,0.06-0.01c0.02,0,0.04,0,0.06,0c0.04,0,0.08,0.01,0.11,0.02
		c0.03,0.01,0.06,0.03,0.08,0.05c0.02,0.02,0.04,0.05,0.05,0.08C9.89,10.99,9.9,11.02,9.9,11.06z M9.83,11.06
		c0-0.03-0.01-0.06-0.02-0.09s-0.02-0.04-0.04-0.06c-0.02-0.02-0.04-0.03-0.06-0.03c-0.02-0.01-0.05-0.01-0.08-0.01
		c-0.02,0-0.03,0-0.04,0c-0.01,0-0.02,0-0.04,0v0.38c0.01,0,0.03,0.01,0.04,0.01c0.01,0,0.03,0,0.05,0c0.06,0,0.11-0.02,0.14-0.05
		C9.82,11.18,9.83,11.13,9.83,11.06z"/>
	<path class="st0" d="M10.19,11.31c-0.01-0.01-0.01-0.02-0.01-0.03v-0.42c0-0.01,0-0.02,0.01-0.03c0.01-0.01,0.02-0.01,0.03-0.01
		h0.27c0,0,0,0.01,0,0.01c0,0,0,0.01,0,0.01c0,0.01,0,0.02-0.01,0.02c0,0.01-0.01,0.01-0.02,0.01h-0.22v0.16h0.21c0,0,0,0.01,0,0.01
		c0,0,0,0.01,0,0.01c0,0.01,0,0.02-0.01,0.02c0,0.01-0.01,0.01-0.02,0.01h-0.2v0.17h0.24c0,0,0,0.01,0,0.01c0,0,0,0.01,0,0.02
		c0,0.01,0,0.02-0.01,0.02c0,0.01-0.01,0.01-0.02,0.01h-0.25C10.2,11.32,10.19,11.31,10.19,11.31z"/>
	<path class="st0" d="M10.9,11.27c0.04,0,0.06-0.01,0.08-0.02c0.02-0.02,0.03-0.04,0.03-0.06c0-0.02-0.01-0.04-0.02-0.05
		c-0.01-0.01-0.04-0.03-0.07-0.03l-0.07-0.02c-0.03-0.01-0.06-0.03-0.08-0.05c-0.02-0.02-0.03-0.05-0.03-0.08
		c0-0.02,0-0.04,0.01-0.06c0.01-0.02,0.02-0.03,0.03-0.04c0.01-0.01,0.03-0.02,0.05-0.03c0.02-0.01,0.04-0.01,0.07-0.01
		c0.02,0,0.04,0,0.06,0.01c0.02,0,0.03,0.01,0.05,0.01c0.01,0.01,0.02,0.01,0.03,0.02c0.01,0.01,0.01,0.02,0.01,0.02
		c0,0.01,0,0.01-0.01,0.02c0,0.01-0.01,0.01-0.01,0.01c-0.01-0.01-0.03-0.02-0.05-0.03c-0.02-0.01-0.05-0.01-0.07-0.01
		c-0.03,0-0.06,0.01-0.07,0.02c-0.02,0.01-0.03,0.03-0.03,0.06c0,0.02,0.01,0.03,0.02,0.05c0.01,0.01,0.03,0.02,0.06,0.03l0.05,0.01
		c0.04,0.01,0.08,0.03,0.1,0.05c0.02,0.02,0.04,0.05,0.04,0.09c0,0.04-0.02,0.08-0.05,0.1c-0.03,0.03-0.07,0.04-0.13,0.04
		c-0.02,0-0.05,0-0.07-0.01c-0.02,0-0.04-0.01-0.05-0.02c-0.01-0.01-0.03-0.01-0.03-0.02c-0.01-0.01-0.01-0.02-0.01-0.02
		c0-0.01,0-0.02,0.01-0.02c0.01-0.01,0.01-0.01,0.02-0.01c0.01,0.01,0.01,0.01,0.02,0.02c0.01,0.01,0.02,0.01,0.03,0.02
		c0.01,0.01,0.02,0.01,0.04,0.01C10.87,11.27,10.88,11.27,10.9,11.27z"/>
	<path class="st0" d="M11.4,11.32c-0.01,0-0.01,0-0.02,0c-0.02,0-0.04-0.01-0.04-0.03v-0.46c0,0,0.01,0,0.01,0c0.01,0,0.01,0,0.02,0
		c0.02,0,0.03,0.01,0.03,0.03v0.46C11.41,11.31,11.41,11.32,11.4,11.32z"/>
	<path class="st0" d="M12.11,11.26c0,0.01,0,0.02-0.01,0.02c-0.01,0.01-0.01,0.01-0.03,0.02c-0.01,0.01-0.03,0.01-0.06,0.02
		c-0.02,0-0.05,0.01-0.07,0.01c-0.04,0-0.07-0.01-0.1-0.02c-0.03-0.01-0.06-0.03-0.08-0.05c-0.02-0.02-0.04-0.05-0.05-0.08
		c-0.01-0.03-0.02-0.07-0.02-0.11c0-0.04,0.01-0.08,0.02-0.11s0.03-0.06,0.05-0.08c0.02-0.02,0.05-0.04,0.08-0.05
		c0.03-0.01,0.06-0.02,0.09-0.02c0.02,0,0.04,0,0.06,0.01c0.02,0,0.04,0.01,0.05,0.01c0.01,0.01,0.02,0.01,0.03,0.02
		c0.01,0.01,0.01,0.02,0.01,0.02c0,0.01,0,0.01-0.01,0.02c0,0.01-0.01,0.01-0.02,0.01c-0.01-0.01-0.03-0.02-0.05-0.03
		c-0.02-0.01-0.05-0.01-0.08-0.01c-0.03,0-0.05,0-0.07,0.01c-0.02,0.01-0.04,0.02-0.06,0.04c-0.02,0.02-0.03,0.04-0.04,0.06
		c-0.01,0.03-0.01,0.05-0.01,0.09c0,0.03,0,0.06,0.01,0.09c0.01,0.03,0.02,0.05,0.04,0.06c0.02,0.02,0.04,0.03,0.06,0.04
		c0.02,0.01,0.05,0.01,0.07,0.01c0.02,0,0.04,0,0.05,0c0.02,0,0.03-0.01,0.04-0.01V11.1h-0.12c0,0,0-0.01,0-0.01c0,0,0-0.01,0-0.01
		c0-0.01,0-0.02,0.01-0.02c0-0.01,0.01-0.01,0.02-0.01h0.13c0.01,0,0.02,0,0.02,0.01c0.01,0.01,0.01,0.01,0.01,0.02V11.26z"/>
	<path class="st0" d="M12.43,11.32c-0.02,0-0.04-0.01-0.04-0.03v-0.46c0.01-0.01,0.02-0.01,0.04-0.01c0.01,0,0.02,0,0.03,0.01
		c0.01,0.01,0.02,0.01,0.03,0.03l0.15,0.26c0.01,0.01,0.01,0.02,0.02,0.04c0.01,0.01,0.01,0.03,0.02,0.04s0.01,0.02,0.02,0.04
		c0.01,0.01,0.01,0.02,0.01,0.03l0,0c0-0.04-0.01-0.09-0.01-0.13c0-0.04,0-0.09,0-0.13v-0.16c0,0,0.01,0,0.01,0
		c0.01,0,0.01,0,0.02,0c0.02,0,0.04,0.01,0.04,0.03v0.46c0,0-0.01,0.01-0.02,0.01c-0.01,0-0.02,0-0.03,0c-0.01,0-0.02,0-0.03-0.01
		c-0.01-0.01-0.02-0.01-0.03-0.03l-0.15-0.26c-0.01-0.01-0.01-0.02-0.02-0.04c-0.01-0.01-0.01-0.03-0.02-0.04
		c-0.01-0.01-0.01-0.02-0.02-0.04c-0.01-0.01-0.01-0.02-0.01-0.03l0,0c0,0.03,0,0.06,0.01,0.09c0,0.03,0,0.06,0,0.09v0.24
		c0,0-0.01,0-0.01,0C12.44,11.32,12.44,11.32,12.43,11.32z"/>
</g>
</svg>
