<?xml version="1.0" standalone="no"?>
<!DOCTYPE svg PUBLIC "-//W3C//DTD SVG 20010904//EN"
 "http://www.w3.org/TR/2001/REC-SVG-20010904/DTD/svg10.dtd">
<svg version="1.0" xmlns="http://www.w3.org/2000/svg"
 width="700.000000pt" height="700.000000pt" viewBox="0 0 700.000000 700.000000"
 preserveAspectRatio="xMidYMid meet">
<metadata>
Created by potrace 1.11, written by Peter Selinger 2001-2013
</metadata>
<g transform="translate(0.000000,700.000000) scale(0.100000,-0.100000)"
fill="#000000" stroke="none">
<path d="M3603 5509 c-84 -10 -179 -35 -231 -60 -77 -37 -73 2 -70 -747 3
-646 4 -668 23 -701 32 -55 82 -74 199 -77 113 -3 181 6 203 29 12 12 15 51
16 217 0 170 3 205 16 222 14 17 31 20 131 23 240 8 384 61 512 188 107 107
150 221 144 387 -9 266 -170 439 -470 507 -79 18 -369 25 -473 12z m352 -354
c89 -21 147 -106 140 -202 -10 -132 -94 -189 -267 -184 -82 2 -86 11 -85 200
0 158 1 163 24 181 19 15 37 18 91 15 37 -2 81 -6 97 -10z"/>
<path d="M2615 5498 c-43 -5 -81 -11 -84 -14 -3 -3 -6 -240 -7 -527 -1 -503
-2 -524 -21 -568 -24 -53 -87 -111 -138 -126 -20 -7 -63 -10 -95 -8 -106 5
-185 72 -209 175 -6 26 -12 201 -13 415 -3 350 -4 372 -23 405 -33 57 -93 81
-206 81 -68 -1 -205 -14 -214 -21 0 0 0 -201 1 -447 1 -493 4 -520 60 -640
105 -222 332 -336 654 -328 356 8 591 189 645 495 4 19 7 247 7 506 0 449 -1
473 -20 516 -36 82 -136 107 -337 86z"/>
<path d="M5140 3908 c-315 -32 -565 -247 -644 -555 -22 -84 -27 -133 -28 -248
-1 -184 33 -320 115 -467 84 -151 285 -295 451 -324 17 -3 48 -9 68 -13 110
-25 383 -6 480 33 18 7 42 17 53 21 11 5 22 9 25 9 3 1 14 7 25 13 11 7 35 20
52 30 118 66 246 235 297 392 40 125 53 356 26 488 -86 429 -444 670 -920 621z
m216 -359 c178 -44 266 -208 259 -477 -5 -170 -31 -252 -107 -331 -67 -69
-135 -96 -238 -95 -77 0 -91 3 -149 34 -76 41 -129 105 -162 200 -21 58 -23
83 -23 225 0 141 2 168 23 225 25 73 70 137 117 170 79 53 186 72 280 49z"/>
<path d="M1588 3905 c-2 -2 -35 -5 -73 -8 -68 -6 -177 -26 -242 -46 -48 -14
-90 -47 -101 -80 -7 -18 -10 -258 -10 -655 0 -620 0 -626 22 -668 11 -24 36
-53 54 -65 41 -27 131 -62 180 -69 21 -3 44 -7 52 -9 63 -18 340 -25 445 -12
187 23 364 106 486 228 221 221 270 682 106 1005 -98 194 -325 335 -597 370
-53 6 -316 14 -322 9z m293 -375 c116 -39 188 -108 229 -217 26 -69 31 -101
34 -203 8 -250 -102 -418 -299 -458 -42 -8 -146 -10 -220 -4 -20 2 -20 9 -20
444 l1 442 24 6 c63 16 188 11 251 -10z"/>
<path d="M2908 3879 c-26 -4 -51 -9 -55 -12 -10 -6 -8 -1014 1 -1084 12 -82
46 -172 92 -241 25 -36 52 -71 62 -78 9 -6 29 -23 44 -37 68 -64 220 -125 347
-141 53 -7 228 -9 256 -3 11 3 39 8 62 12 66 11 191 61 252 101 82 54 146 126
186 209 61 126 64 163 62 695 -2 455 -3 476 -22 509 -34 58 -83 76 -210 76
-109 0 -202 -9 -213 -20 -4 -3 -7 -236 -7 -518 -1 -378 -4 -523 -14 -555 -16
-58 -85 -127 -143 -143 -134 -37 -252 18 -298 138 -18 48 -19 82 -20 495 0
243 -3 457 -6 473 -17 96 -75 130 -224 131 -58 1 -126 -2 -152 -7z"/>
<path d="M1882 1950 c-22 -9 -23 -13 -20 -117 2 -88 6 -108 18 -108 11 0 14
10 13 43 -2 40 -1 42 27 42 23 0 35 -8 56 -39 26 -40 54 -60 54 -39 0 6 -12
26 -26 45 l-26 34 26 20 c31 24 34 67 9 97 -21 24 -95 36 -131 22z m94 -30
c15 -13 18 -47 6 -67 -8 -12 -24 -16 -64 -14 -26 1 -28 4 -28 44 0 24 3 47 7
51 10 9 61 0 79 -14z"/>
<path d="M2709 1943 c-9 -10 -4 -13 24 -13 l36 0 3 -102 c2 -83 6 -103 18
-106 13 -2 15 13 15 103 l-1 105 38 0 c20 0 40 5 43 10 7 12 9 12 -88 14 -54
2 -81 -2 -88 -11z"/>
<path d="M3552 1945 c-47 -20 -74 -70 -67 -123 7 -57 23 -80 63 -97 34 -15 99
-12 117 6 5 5 10 32 11 59 1 39 -3 50 -15 51 -46 5 -65 2 -69 -9 -2 -7 6 -12
18 -12 18 0 21 -5 18 -37 -3 -37 -4 -38 -42 -36 -47 2 -73 25 -80 72 -9 64 25
111 80 111 20 0 44 -5 55 -10 15 -9 19 -7 19 5 0 27 -62 39 -108 20z"/>
<path d="M4010 1947 c-21 -11 -25 -19 -23 -56 2 -33 -3 -48 -18 -60 -32 -26
-34 -67 -5 -96 29 -29 76 -33 119 -10 24 12 29 12 34 0 5 -16 33 -21 33 -7 0
5 -9 19 -19 31 -16 18 -18 28 -10 48 13 34 11 63 -3 63 -7 0 -14 -12 -14 -26
-3 -41 -12 -40 -59 6 -60 60 -59 90 3 85 25 -2 30 20 6 29 -19 7 -14 8 -44 -7z
m62 -194 c-22 -17 -53 -16 -80 3 -28 20 -28 49 0 69 22 15 25 14 60 -22 32
-34 35 -39 20 -50z"/>
<path d="M5534 1949 c-38 -11 -59 -34 -71 -79 -27 -101 48 -177 147 -150 36
10 40 14 34 33 -4 12 -8 38 -8 57 -1 33 -3 35 -36 34 -49 -2 -50 -3 -50 -14 0
-5 13 -10 28 -10 24 0 28 -4 27 -27 -1 -47 -15 -55 -76 -44 -3 1 -15 10 -27
21 -30 28 -30 97 -1 134 22 28 73 36 109 16 12 -6 21 -7 25 -1 6 10 -24 30
-53 35 -9 2 -31 -1 -48 -5z"/>
<path d="M1623 1938 c-8 -14 -21 -45 -48 -123 -10 -27 -21 -57 -26 -66 -9 -18
-3 -29 16 -29 7 0 15 13 18 29 7 32 21 38 77 33 29 -3 38 -9 47 -33 11 -28 33
-40 33 -19 0 6 -16 57 -35 113 -19 56 -35 103 -35 104 0 9 -40 1 -47 -9z m46
-81 l18 -57 -39 0 -39 0 7 38 c8 46 23 86 29 80 3 -2 13 -30 24 -61z"/>
<path d="M2160 1841 c0 -67 4 -112 11 -116 16 -11 21 0 22 49 0 25 3 46 7 46
3 0 28 -22 55 -50 27 -27 53 -50 57 -50 19 0 5 24 -42 70 l-49 50 44 43 c42
39 57 67 36 67 -4 0 -29 -22 -55 -50 -26 -27 -49 -50 -52 -50 -3 0 -5 12 -4
28 4 53 0 72 -15 72 -12 0 -15 -19 -15 -109z"/>
<path d="M2452 1838 l3 -113 63 -2 c49 -2 62 0 62 12 0 11 -13 15 -55 15 l-55
0 0 40 0 40 49 0 c28 0 53 5 56 10 7 11 -2 13 -57 10 -38 -2 -38 -2 -38 39 l0
41 54 0 c30 0 58 5 61 10 4 6 -22 10 -70 10 l-76 0 3 -112z"/>
<path d="M2997 1943 c-3 -7 -1 -192 2 -215 1 -5 7 -8 14 -8 10 0 15 104 8 213
-1 17 -17 24 -24 10z"/>
<path d="M3170 1835 c0 -92 3 -115 14 -115 20 0 23 16 22 107 -1 75 0 80 12
57 7 -14 11 -28 8 -31 -3 -3 6 -23 20 -44 13 -21 24 -41 24 -45 0 -18 42 -62
58 -60 15 3 17 16 18 114 0 83 -3 112 -12 116 -20 8 -22 -2 -20 -91 0 -46 1
-83 0 -83 -1 0 -26 43 -55 95 -36 64 -59 95 -71 95 -16 0 -18 -12 -18 -115z"/>
<path d="M4443 1943 c-9 -3 -13 -34 -13 -108 0 -116 7 -130 62 -122 67 10 88
20 108 52 36 59 18 139 -39 165 -28 13 -98 20 -118 13z m120 -41 c26 -27 31
-95 9 -122 -22 -27 -88 -43 -105 -26 -10 11 -13 74 -8 165 1 20 79 7 104 -17z"/>
<path d="M4757 1943 c-4 -3 -7 -55 -7 -114 l0 -107 65 -1 c51 -1 65 2 65 14 0
11 -13 15 -55 15 l-55 0 0 40 0 40 49 0 c28 0 53 5 56 10 4 6 -13 10 -44 10
l-51 0 0 40 0 40 54 0 c30 0 58 5 61 10 7 11 -127 14 -138 3z"/>
<path d="M5038 1936 c-10 -7 -21 -27 -24 -43 -5 -25 -1 -34 21 -52 15 -11 36
-21 45 -21 10 0 28 -8 40 -18 43 -35 -11 -77 -72 -54 -31 11 -49 -2 -21 -16
16 -9 62 -16 89 -13 21 2 54 42 54 66 0 28 -43 65 -76 65 -12 0 -30 10 -38 22
-14 20 -14 24 1 40 18 20 45 23 73 8 13 -7 21 -7 25 0 16 25 -87 39 -117 16z"/>
<path d="M5290 1836 c0 -98 2 -116 15 -116 13 0 15 17 13 112 -2 78 -7 113
-15 116 -10 3 -13 -24 -13 -112z"/>
<path d="M5782 1838 c2 -82 7 -113 16 -116 11 -3 13 14 10 82 -2 47 -1 86 2
86 3 0 27 -41 54 -90 46 -85 67 -107 87 -94 13 8 12 221 -2 229 -19 12 -23 -4
-21 -92 l1 -86 -55 96 c-41 71 -61 97 -75 97 -19 0 -19 -6 -17 -112z"/>
<path d="M1207 1933 c-3 -5 -8 -35 -12 -68 -14 -121 -14 -136 1 -142 8 -3 17
-4 19 -1 4 4 18 119 19 156 0 22 1 22 13 7 6 -10 20 -37 30 -61 10 -24 23 -46
30 -48 11 -5 63 64 63 84 0 24 20 7 21 -17 1 -61 9 -134 14 -144 4 -5 11 -7
16 -3 9 5 7 54 -7 159 -13 98 -33 100 -76 8 l-30 -68 -30 65 c-32 71 -57 97
-71 73z"/>
</g>
</svg>
